<svg width="33" height="24" viewBox="0 0 33 24" fill="none" xmlns="http://www.w3.org/2000/svg">
<path fill="currentColor" d="M0.449883 23.9941C0.149883 23.9941 -0.000117123 23.8441 -0.000117123 23.5441V20.1601C-0.000117123 20.0041 0.00588289 19.8781 0.0178829 19.7821C0.0418829 19.6861 0.113883 19.6081 0.233883 19.5481L4.94988 17.3881V14.1841L0.305883 11.3041C0.101883 11.1841 -0.000117123 11.0041 -0.000117123 10.7641V4.15814C-0.000117123 3.96614 0.0118829 3.82814 0.0358829 3.74414C0.0598829 3.64814 0.149883 3.54614 0.305883 3.43814L5.03988 0.23414C5.15988 0.162139 5.26788 0.108139 5.36388 0.0721385C5.47188 0.0241392 5.60388 0.000139475 5.75988 0.000139475H10.6199C10.9199 0.000139475 11.0699 0.150139 11.0699 0.450139V3.51014C11.0699 3.77414 10.9799 3.95414 10.7999 4.05014L6.08388 5.99414V9.32414L10.7999 12.0241C10.9799 12.1081 11.0699 12.3001 11.0699 12.6001V20.4301C11.0699 20.5261 11.0519 20.6281 11.0159 20.7361C10.9919 20.8441 10.9319 20.9221 10.8359 20.9701L5.18388 23.7781C5.11188 23.8141 5.02188 23.8621 4.91388 23.9221C4.81788 23.9701 4.72188 23.9941 4.62588 23.9941H0.449883ZM15.2985 23.9941C14.9985 23.9941 14.8485 23.8441 14.8485 23.5441V0.450139C14.8485 0.150139 14.9985 0.000139475 15.2985 0.000139475H20.3925C20.6925 0.000139475 20.8425 0.150139 20.8425 0.450139V9.99014H23.0745L24.2625 5.50814L25.3425 0.23414C25.3665 0.162139 25.4205 0.108139 25.5045 0.0721385C25.6005 0.0241392 25.7385 0.000139475 25.9185 0.000139475H31.1025C31.4025 0.000139475 31.5525 0.150139 31.5525 0.450139V2.70014C31.5525 2.83214 31.5345 2.96414 31.4985 3.09614C31.4625 3.21614 31.4325 3.32414 31.4085 3.42014L29.2125 8.69414L27.6825 11.5741L29.2485 14.4181L31.8945 20.4301C31.9425 20.5141 31.9785 20.6041 32.0025 20.7001C32.0265 20.7961 32.0385 20.9341 32.0385 21.1141V23.5441C32.0385 23.8441 31.8885 23.9941 31.5885 23.9941H26.2245C26.1405 23.9941 26.0325 23.9821 25.9005 23.9581C25.7805 23.9221 25.7085 23.8441 25.6845 23.7241L24.3525 18.0181L23.3625 14.7601H20.8425V23.5441C20.8425 23.8441 20.6925 23.9941 20.3925 23.9941H15.2985Z" />
</svg>
