<svg width="105" height="30" viewBox="0 0 105 30" fill="none" xmlns="http://www.w3.org/2000/svg">
<path fill="currentColor" d="M0.449883 23.9941C0.149883 23.9941 -0.000117123 23.8441 -0.000117123 23.5441V20.1601C-0.000117123 20.0041 0.00588289 19.8781 0.0178829 19.7821C0.0418829 19.6861 0.113883 19.6081 0.233883 19.5481L4.94988 17.3881V14.1841L0.305883 11.3041C0.101883 11.1841 -0.000117123 11.0041 -0.000117123 10.7641V4.15814C-0.000117123 3.96614 0.0118829 3.82814 0.0358829 3.74414C0.0598829 3.64814 0.149883 3.54614 0.305883 3.43814L5.03988 0.23414C5.15988 0.162139 5.26788 0.108139 5.36388 0.0721385C5.47188 0.0241392 5.60388 0.000139475 5.75988 0.000139475H10.6199C10.9199 0.000139475 11.0699 0.150139 11.0699 0.450139V3.51014C11.0699 3.77414 10.9799 3.95414 10.7999 4.05014L6.08388 5.99414V9.32414L10.7999 12.0241C10.9799 12.1081 11.0699 12.3001 11.0699 12.6001V20.4301C11.0699 20.5261 11.0519 20.6281 11.0159 20.7361C10.9919 20.8441 10.9319 20.9221 10.8359 20.9701L5.18388 23.7781C5.11188 23.8141 5.02188 23.8621 4.91388 23.9221C4.81788 23.9701 4.72188 23.9941 4.62588 23.9941H0.449883ZM24.8385 23.9941C24.6825 23.9941 24.5565 23.9701 24.4605 23.9221C24.3765 23.8741 24.3225 23.8081 24.2985 23.7241L22.2285 15.5701H20.5545V11.2501H22.2285L24.2985 4.50014C24.3225 4.40414 24.3765 4.33814 24.4605 4.30214C24.5565 4.25414 24.6825 4.23014 24.8385 4.23014H29.3925C29.6925 4.23014 29.8425 4.38014 29.8425 4.68014V6.58814C29.8425 6.75614 29.8305 6.88814 29.8065 6.98414C29.7825 7.08014 29.7465 7.18214 29.6985 7.29014L27.0345 13.4281V14.0401L29.8425 20.9341C29.9025 21.0661 29.9445 21.1861 29.9685 21.2941C29.9925 21.3901 30.0045 21.4981 30.0045 21.6181V23.5441C30.0045 23.8441 29.8545 23.9941 29.5545 23.9941H24.8385ZM15.2985 23.9941C14.9985 23.9941 14.8485 23.8441 14.8485 23.5441V0.450139C14.8485 0.150139 14.9985 0.000139475 15.2985 0.000139475H20.1045C20.4045 0.000139475 20.5545 0.150139 20.5545 0.450139V23.5441C20.5545 23.8441 20.4045 23.9941 20.1045 23.9941H15.2985ZM37.7352 23.9941C37.4592 23.9941 37.2192 23.8921 37.0152 23.6881L33.4152 20.0881C33.2112 19.8961 33.1092 19.6561 33.1092 19.3681V8.82014C33.1092 8.53214 33.2112 8.29214 33.4152 8.10014L37.0152 4.50014C37.2192 4.29614 37.4592 4.19414 37.7352 4.19414H47.3652C47.6652 4.19414 47.8152 4.34414 47.8152 4.64414V23.5441C47.8152 23.8441 47.6652 23.9941 47.3652 23.9941H43.6212C43.4652 23.9941 43.3452 23.9641 43.2612 23.9041C43.1892 23.8441 43.1052 23.7721 43.0092 23.6881L42.1092 22.7881L41.2092 23.6881C41.0172 23.8921 40.7772 23.9941 40.4892 23.9941H37.7352ZM39.8412 19.8001H41.1012C41.4852 19.8001 41.7492 19.7221 41.8932 19.5661C42.0372 19.4101 42.1092 19.1341 42.1092 18.7381V8.38814H39.8412C39.4452 8.38814 39.1752 8.46614 39.0312 8.62214C38.8872 8.77814 38.8152 9.05414 38.8152 9.45014V18.7381C38.8152 19.1341 38.8872 19.4101 39.0312 19.5661C39.1752 19.7221 39.4452 19.8001 39.8412 19.8001ZM52.2426 23.9941C51.9426 23.9941 51.7926 23.8441 51.7926 23.5441V0.450139C51.7926 0.150139 51.9426 0.000139475 52.2426 0.000139475H57.0486C57.3486 0.000139475 57.4986 0.150139 57.4986 0.450139V23.5441C57.4986 23.8441 57.3486 23.9941 57.0486 23.9941H52.2426ZM65.9657 23.9941C65.6897 23.9941 65.4497 23.8921 65.2457 23.6881L61.6457 20.0881C61.4417 19.8961 61.3397 19.6561 61.3397 19.3681V8.82014C61.3397 8.53214 61.4417 8.29214 61.6457 8.10014L65.2457 4.50014C65.4497 4.29614 65.6897 4.19414 65.9657 4.19414H68.7197C69.0077 4.19414 69.2477 4.29614 69.4397 4.50014L70.3397 5.40014V0.450139C70.3397 0.150139 70.4897 0.000139475 70.7897 0.000139475H75.5957C75.8957 0.000139475 76.0457 0.150139 76.0457 0.450139V23.5441C76.0457 23.8441 75.8957 23.9941 75.5957 23.9941H71.8517C71.6957 23.9941 71.5757 23.9641 71.4917 23.9041C71.4197 23.8441 71.3357 23.7721 71.2397 23.6881L70.3397 22.7881L69.4397 23.6881C69.2477 23.8921 69.0077 23.9941 68.7197 23.9941H65.9657ZM68.0717 19.8001H69.3317C69.7157 19.8001 69.9797 19.7221 70.1237 19.5661C70.2677 19.4101 70.3397 19.1341 70.3397 18.7381V8.38814H68.0717C67.6757 8.38814 67.4057 8.46614 67.2617 8.62214C67.1177 8.77814 67.0457 9.05414 67.0457 9.45014V18.7381C67.0457 19.1341 67.1177 19.4101 67.2617 19.5661C67.4057 19.7221 67.6757 19.8001 68.0717 19.8001ZM80.4731 23.9941C80.1731 23.9941 80.0231 23.8441 80.0231 23.5441V0.450139C80.0231 0.150139 80.1731 0.000139475 80.4731 0.000139475H85.2791C85.5791 0.000139475 85.7291 0.150139 85.7291 0.450139V23.5441C85.7291 23.8441 85.5791 23.9941 85.2791 23.9941H80.4731ZM94.8801 29.9881C94.5801 29.9881 94.4301 29.8381 94.4301 29.5381V26.7301C94.4301 26.5021 94.5201 26.3701 94.7001 26.3341L97.3461 25.6681L99.2001 24.6781C99.3801 24.5821 99.4701 24.3961 99.4701 24.1201V21.1681L97.7961 22.7341C97.5921 22.9381 97.3521 23.0401 97.0761 23.0401L94.0161 23.1481C93.7401 23.1481 93.5001 23.0521 93.2961 22.8601L90.0021 19.5481C89.7981 19.3561 89.6961 19.1161 89.6961 18.8281V4.64414C89.6961 4.34414 89.8461 4.19414 90.1461 4.19414H94.9521C95.2521 4.19414 95.4021 4.34414 95.4021 4.64414V18.1981C95.4021 18.5941 95.4741 18.8701 95.6181 19.0261C95.7621 19.1821 96.0261 19.2601 96.4101 19.2601H98.6961V4.64414C98.6961 4.34414 98.8461 4.19414 99.1461 4.19414H103.952C104.252 4.19414 104.402 4.34414 104.402 4.64414V26.2801C104.402 26.6401 104.3 26.8801 104.096 27.0001L101.702 28.5301L98.6601 29.7901C98.4801 29.8621 98.3421 29.9101 98.2461 29.9341C98.1621 29.9701 98.0241 29.9881 97.8321 29.9881H94.8801Z"/>
</svg>
